<?xml version="1.0" standalone="no"?>
<!DOCTYPE svg PUBLIC "-//W3C//DTD SVG 20010904//EN"
 "http://www.w3.org/TR/2001/REC-SVG-20010904/DTD/svg10.dtd">
<svg version="1.0" xmlns="http://www.w3.org/2000/svg"
 width="512.000000pt" height="512.000000pt" viewBox="0 0 512.000000 512.000000"
 preserveAspectRatio="xMidYMid meet">

<g transform="translate(0.000000,512.000000) scale(0.100000,-0.100000)"
fill="#000000" stroke="none">
<path d="M2965 4510 l-450 -450 75 0 c166 0 349 -38 531 -110 204 -82 395
-218 555 -397 200 -225 323 -485 364 -773 16 -113 13 -351 -6 -471 -31 -195
-108 -393 -218 -558 -200 -300 -497 -525 -826 -625 -227 -69 -544 -77 -787
-21 -78 18 -237 77 -318 118 -91 46 -227 140 -318 221 -307 274 -482 634 -505
1039 l-7 117 -450 -450 -449 -449 19 -58 c30 -91 183 -388 257 -498 373 -560
970 -963 1613 -1089 230 -45 284 -50 515 -50 186 0 250 4 370 23 298 47 518
117 775 246 754 380 1256 1074 1386 1916 29 189 32 522 5 704 -123 846 -617
1548 -1361 1931 -135 70 -282 134 -308 134 -7 0 -215 -202 -462 -450z"/>
<path d="M2378 3604 l-3 -146 -96 -32 c-153 -49 -255 -130 -317 -249 -36 -71
-37 -74 -37 -187 0 -114 1 -117 38 -193 30 -61 52 -89 106 -135 116 -100 217
-147 471 -219 69 -19 157 -50 197 -68 181 -84 248 -239 160 -371 -59 -89 -151
-124 -328 -124 -112 0 -210 22 -270 60 -48 32 -106 105 -114 147 -3 13 -7 34
-10 48 l-5 25 -140 0 -140 0 0 -28 c0 -49 30 -145 66 -209 59 -106 191 -201
334 -239 36 -10 71 -22 78 -27 8 -7 12 -49 12 -148 l0 -139 195 0 194 0 3 141
3 142 81 22 c221 60 350 189 373 375 40 318 -161 526 -634 656 -71 20 -159 50
-194 67 -74 34 -158 107 -177 154 -43 101 24 226 151 285 45 21 65 23 190 23
124 0 145 -3 185 -22 84 -41 133 -105 151 -195 l12 -58 138 0 139 0 0 28 c0
49 -39 183 -66 230 -31 53 -101 124 -159 160 -22 14 -76 38 -120 52 l-80 27
-3 147 -3 146 -189 0 -189 0 -3 -146z"/>
</g>
</svg>
